# xmcd CD database file
#
# Track frame offsets:
#	150
#	12682
#	24555
#	42102
#	58905
#	72522
#	85887
#	95952
#	108770
#	118947
#	133430
#	140197
#	151522
#	161675
#	174552
#	186057
#	200915
#	213662
#	226317
#	242960
#	257405
#
# Disc length: 3645 seconds
#
# Revision: 9
# Processed by: cddbd v1.5.2PL0 Copyright (c) Steve Scherf et al.
# Submitted via: CDex 1.51
#
DISCID=410e3b15
DTITLE=GREEN DAY - INTERNATIONAL SUPERHITS!
DYEAR=2001
DGENRE=Punk Rock
TTITLE0=Maria
TTITLE1=Poprocks and Coke
TTITLE2=Longview
TTITLE3=Welcome To Paradise
TTITLE4=Basket Case
TTITLE5=When I Come Around
TTITLE6=She
TTITLE7=J.A.R. (Jason Andrew Relva)
TTITLE8=Geek Stink Breath
TTITLE9=Brain Stew
TTITLE10=Jaded
TTITLE11=Walking Contradiction
TTITLE12=Stuck With Me
TTITLE13=Hitchin' A Ride
TTITLE14=Good Riddance (Time Of Your Life)
TTITLE15=Redundant
TTITLE16=Nice Guys Finish Last
TTITLE17=Minority
TTITLE18=Warning
TTITLE19=Waiting
TTITLE20=Macy's Day Parade
EXTD=YEAR: 2001
EXTT0=
EXTT1=
EXTT2=
EXTT3=
EXTT4=
EXTT5=
EXTT6=
EXTT7=
EXTT8=
EXTT9=
EXTT10=
EXTT11=
EXTT12=
EXTT13=
EXTT14=
EXTT15=
EXTT16=
EXTT17=
EXTT18=
EXTT19=
EXTT20=
PLAYORDER=
